HIERARCHY
ROOT SpineBase
{
  OFFSET 0.000000 0.000000 0.000000
  CHANNELS 6 Xposition Yposition Zposition Zrotation Xrotation Yrotation
  JOINT SpineMid
  {
    OFFSET -0.000000 31.566815 0.000000
    CHANNELS 3 Zrotation Xrotation Yrotation
    JOINT SpineShoulder
    {
      OFFSET 0.254901 23.429857 -0.710674
      CHANNELS 3 Zrotation Xrotation Yrotation
      JOINT Neck
      {
        OFFSET 0.159050 7.757273 -0.538063
        CHANNELS 3 Zrotation Xrotation Yrotation
        JOINT Head
        {
          OFFSET 3.955195 14.463718 -0.840973
          CHANNELS 3 Zrotation Xrotation Yrotation
          End Site
          {
            OFFSET 0 0 0
          }
        }
      }
      JOINT ShoulderLeft
      {
        OFFSET -13.425326 -2.553975 -9.854828
        CHANNELS 3 Zrotation Xrotation Yrotation
        JOINT ElbowLeft
        {
          OFFSET -9.254099 -27.938301 -1.916335
          CHANNELS 3 Zrotation Xrotation Yrotation
          JOINT WristLeft
          {
            OFFSET -5.360052 -22.113014 -6.117878
            CHANNELS 3 Zrotation Xrotation Yrotation
            JOINT HandLeft
            {
              OFFSET -1.120167 -7.067283 -1.452753
              CHANNELS 3 Zrotation Xrotation Yrotation
              JOINT HandTipLeft
              {
                OFFSET -0.960157 -4.867868 -1.416883
                CHANNELS 3 Zrotation Xrotation Yrotation
                End Site
                {
                  OFFSET 0 0 0
                }
              }
              JOINT ThumbLeft
              {
                OFFSET -2.360642 1.327567 -1.669901
                CHANNELS 3 Zrotation Xrotation Yrotation
                End Site
                {
                  OFFSET 0 0 0
                }
              }
            }
          }
        }
      }
      JOINT ShoulderRight
      {
        OFFSET 16.713058 -4.757522 8.435943
        CHANNELS 3 Zrotation Xrotation Yrotation
        JOINT ElbowRight
        {
          OFFSET 3.092600 -29.609521 1.635914
          CHANNELS 3 Zrotation Xrotation Yrotation
          JOINT WristRight
          {
            OFFSET 3.312244 -21.887929 -7.725125
            CHANNELS 3 Zrotation Xrotation Yrotation
            JOINT HandRight
            {
              OFFSET -0.014840 -4.564779 -0.886132
              CHANNELS 3 Zrotation Xrotation Yrotation
              JOINT HandTipRight
              {
                OFFSET 0.252259 -6.766866 -2.415568
                CHANNELS 3 Zrotation Xrotation Yrotation
                End Site
                {
                  OFFSET 0 0 0
                }
              }
              JOINT ThumbRight
              {
                OFFSET 3.462141 0.108479 -0.696651
                CHANNELS 3 Zrotation Xrotation Yrotation
                End Site
                {
                  OFFSET 0 0 0
                }
              }
            }
          }
        }
      }
    }
  }
  JOINT HipLeft
  {
    OFFSET -5.552411 1.490248 -6.756267
    CHANNELS 3 Zrotation Xrotation Yrotation
    JOINT KneeLeft
    {
      OFFSET -11.544897 -32.350547 -6.205478
      CHANNELS 3 Zrotation Xrotation Yrotation
      JOINT AnkleLeft
      {
        OFFSET -10.475522 -38.754321 4.179689
        CHANNELS 3 Zrotation Xrotation Yrotation
        JOINT FootLeft
        {
          OFFSET -1.105904 -6.404352 -5.581603
          CHANNELS 3 Zrotation Xrotation Yrotation
          End Site
          {
            OFFSET 0 0 0
          }
        }
      }
    }
  }
  JOINT HipRight
  {
    OFFSET 7.233901 0.452380 -0.171398
    CHANNELS 3 Zrotation Xrotation Yrotation
    JOINT KneeRight
    {
      OFFSET 2.837028 -33.467482 0.625725
      CHANNELS 3 Zrotation Xrotation Yrotation
      JOINT AnkleRight
      {
        OFFSET -0.439995 -39.374584 7.764353
        CHANNELS 3 Zrotation Xrotation Yrotation
        JOINT FootRight
        {
          OFFSET 2.758410 -5.566799 -6.188838
          CHANNELS 3 Zrotation Xrotation Yrotation
          End Site
          {
            OFFSET 0 0 0
          }
        }
      }
    }
  }
}
MOTION
Frames: 14
Frame Time: 0.033333
-79.740074 78.825014 332.276340 0.000000 0.000000 -27.248176 -0.000000 0.000000 27.248176 -0.000000 0.000000 0.000000 -0.000000 0.000000 0.000000 0.000000 0.000000 0.000000 -0.000000 0.000000 0.000000 -0.000000 0.000000 0.000000 -0.000000 0.000000 0.000000 -0.000000 0.000000 0.000000 0.000000 0.000000 0.000000 0.000000 0.000000 0.000000 -0.000000 0.000000 0.000000 -0.000000 0.000000 0.000000 -0.000000 0.000000 0.000000 -0.000000 0.000000 0.000000 0.000000 0.000000 0.000000 0.000000 0.000000 0.000000 -0.000000 0.000000 27.248176 -0.000000 0.000000 0.000000 -0.000000 0.000000 0.000000 0.000000 0.000000 0.000000 -0.000000 0.000000 27.248176 -0.000000 0.000000 0.000000 -0.000000 0.000000 0.000000 0.000000 0.000000 0.000000
-78.172101 78.971093 332.749977 -0.054792 0.348129 -26.447592 0.204109 -0.287291 26.448270 -0.000000 0.000000 0.000000 -0.468002 -0.809800 0.190638 0.000000 0.000000 0.000000 1.093321 -0.897204 0.231612 1.299882 -0.147471 -0.643700 1.153726 -0.019104 -0.160377 -1.631137 2.504261 -0.314688 0.000000 0.000000 0.000000 0.000000 0.000000 0.000000 -0.000000 0.000000 0.000000 -0.765327 -0.792878 0.145339 -1.777753 -0.696921 0.345658 4.067211 -0.645602 -1.172538 0.000000 0.000000 0.000000 0.000000 0.000000 0.000000 2.995475 0.691768 26.001848 -0.496950 -2.044264 1.396988 3.593734 8.527726 -7.366380 0.000000 0.000000 0.000000 -0.554334 -0.724828 26.420641 0.046912 0.572035 -0.143924 -0.984622 -1.154571 1.873643 0.000000 0.000000 0.000000
-76.790678 79.088080 333.157897 -0.080806 0.675557 -25.771064 0.366499 -0.573228 25.773373 -0.000000 0.000000 0.000000 -0.830103 -1.479811 0.344757 0.000000 0.000000 0.000000 2.061703 -1.612876 0.424806 2.489046 -0.321365 -1.225497 3.324138 -0.268799 -0.514595 -4.347161 4.351204 -0.266369 0.000000 0.000000 0.000000 0.000000 0.000000 0.000000 -0.167595 -1.073920 -0.122955 -1.221511 -0.401964 0.397386 -3.321017 -1.108421 0.654059 7.616427 -1.471070 -2.267252 0.000000 0.000000 0.000000 0.000000 0.000000 0.000000 5.774395 0.961261 25.024684 -1.009568 -3.280046 2.509887 7.240395 14.351890 -14.146431 0.000000 0.000000 0.000000 -1.116025 -1.420395 25.705619 0.190396 1.090756 -0.253313 -1.935128 -2.243585 3.533402 0.000000 0.000000 0.000000
-75.595804 79.175973 333.500099 -0.077944 0.981977 -25.215576 0.136182 -0.029090 25.208400 -0.032744 -0.897645 0.008514 -1.087613 -2.009522 0.465572 0.000000 0.000000 0.000000 2.908637 -2.152450 0.573708 3.557150 -0.503947 -1.737810 6.373492 -0.661836 -1.043620 -7.932503 5.556811 0.135904 0.000000 0.000000 0.000000 0.000000 0.000000 0.000000 -0.250355 -1.479615 -0.171530 -1.624166 -0.565862 0.536720 -4.657146 -1.250070 0.940827 10.646516 -2.361463 -3.221159 0.000000 0.000000 0.000000 0.000000 0.000000 0.000000 8.280734 0.827098 24.349832 -1.522056 -3.751675 3.286399 10.278253 17.781306 -19.667065 0.000000 0.000000 0.000000 -1.682402 -2.091055 25.100915 0.433723 1.554490 -0.330949 -2.848283 -3.245107 4.979872 0.000000 0.000000 0.000000
-74.587480 79.234774 333.776583 -0.046150 1.267116 -24.778170 0.156125 -0.032886 24.769832 -0.037991 -0.139744 -0.008199 -1.285484 -3.431004 0.550901 0.000000 0.000000 0.000000 3.597705 -3.548369 0.756543 4.499064 -0.682141 -2.175092 9.910275 -1.057380 -1.687895 -11.919426 6.044326 0.809825 0.000000 0.000000 0.000000 0.000000 0.000000 0.000000 -0.375797 -2.834228 -0.199958 -1.891582 -0.700470 0.635629 -5.810689 -1.132656 1.216825 13.162320 -3.211442 -3.990416 0.000000 0.000000 0.000000 0.000000 0.000000 0.000000 10.474632 0.312124 24.000686 -2.011088 -3.501241 3.693342 12.333815 19.308019 -23.552570 0.000000 0.000000 0.000000 -2.251033 -2.741051 24.604348 0.779579 1.962198 -0.379409 -3.723273 -4.140245 6.216552 0.000000 0.000000 0.000000
-73.765706 79.264482 333.987350 0.014591 1.530739 -24.456058 0.163440 -0.032858 24.446675 -0.039005 -0.147852 -0.007979 -1.404034 -3.932955 0.604745 0.000000 0.000000 0.000000 4.144770 -3.995837 0.831634 5.313513 -0.847342 -2.533074 13.333462 -1.288293 -2.360823 -15.620985 5.732421 1.593425 0.000000 0.000000 0.000000 0.000000 0.000000 0.000000 -0.524729 -3.328943 -0.235449 -2.026934 -0.804487 0.694131 -6.801457 -0.759886 1.488967 15.168930 -3.933559 -4.546000 0.000000 0.000000 0.000000 0.000000 0.000000 0.000000 12.331874 -0.560455 23.990659 -2.447203 -2.561806 3.713012 13.275340 19.322852 -25.672120 0.000000 0.000000 0.000000 -2.819666 -3.374531 24.213871 1.230183 2.313380 -0.401014 -4.560840 -4.913266 7.248716 0.000000 0.000000 0.000000
-73.341951 79.239410 334.035472 0.224190 1.774099 -24.346267 0.083918 -0.035744 24.334003 -0.038460 -0.120053 -0.005804 -1.354859 -4.453522 0.670475 0.000000 0.000000 0.000000 4.357807 -4.260166 0.829473 6.373398 -0.956503 -2.895622 17.215812 -2.081276 -2.850087 -19.956702 4.927160 2.747759 0.000000 0.000000 0.000000 0.000000 0.000000 0.000000 -0.557659 -4.003201 -0.272499 -1.877167 -0.509284 0.635322 -6.363442 0.244563 1.524483 15.789854 -2.882020 -4.682310 0.000000 0.000000 0.000000 0.000000 0.000000 0.000000 14.218959 -2.353686 24.738208 -2.955994 0.084829 2.974181 13.584972 16.962360 -26.369540 0.000000 0.000000 0.000000 -3.685976 -3.926816 24.029324 2.268595 2.153520 -0.355522 -5.604652 -5.380819 7.852797 0.000000 0.000000 0.000000
-72.925414 79.174774 334.081711 0.413953 1.988364 -24.339481 0.106325 -0.026955 24.328319 -0.021246 -0.109092 0.001881 -1.476674 -4.528897 0.624247 0.000000 0.000000 0.000000 4.338905 -4.234121 0.734360 7.216937 -1.380432 -3.013988 17.755534 -0.341875 -3.688082 -20.031765 1.884478 3.093316 0.000000 0.000000 0.000000 0.000000 0.000000 0.000000 -0.901322 -4.295384 -0.308755 -1.753718 -0.566951 0.622604 -7.459790 2.027432 1.939123 16.266152 -4.425909 -4.359879 0.000000 0.000000 0.000000 0.000000 0.000000 0.000000 15.559811 -4.356931 25.799380 -3.562558 3.402570 1.787560 12.006996 13.526293 -23.924236 0.000000 0.000000 0.000000 -4.285761 -4.664819 23.920642 2.957905 2.489379 -0.320280 -6.422590 -5.881607 8.543782 0.000000 0.000000 0.000000
-72.581439 79.107032 334.147546 0.519424 2.177028 -24.279143 0.085614 -0.010675 24.265667 -0.021458 -0.088797 0.002996 -1.397359 -4.435209 0.549892 0.000000 0.000000 0.000000 4.629514 -4.227252 0.654288 7.491934 -1.391921 -3.133901 17.334032 0.651782 -3.902783 -18.833061 0.030232 3.024393 0.000000 0.000000 0.000000 0.000000 0.000000 0.000000 -1.147170 -4.499822 -0.328931 -1.375090 -0.792486 0.505679 -8.885703 3.838976 2.518266 16.810691 -7.151891 -4.054607 0.000000 0.000000 0.000000 0.000000 0.000000 0.000000 16.375986 -5.985747 26.639947 -3.586596 6.096866 0.755594 8.884105 8.162854 -19.778445 0.000000 0.000000 0.000000 -4.850824 -5.224846 23.770076 3.691064 2.688945 -0.285661 -6.955253 -5.911110 9.045996 0.000000 0.000000 0.000000
-72.289887 79.059733 334.196907 0.596588 2.328283 -24.198458 0.081519 0.002213 24.183403 -0.017367 -0.077509 0.004587 -1.156884 -4.255719 0.485756 0.000000 0.000000 0.000000 4.837984 -3.943294 0.485477 7.600448 -1.291889 -3.183508 15.891618 1.398838 -3.674779 -16.426341 -2.958753 3.208550 0.000000 0.000000 0.000000 0.000000 0.000000 0.000000 -1.375267 -4.551448 -0.338324 -1.344358 -1.019613 0.519070 -8.810627 5.779460 2.677119 16.261393 -8.901309 -3.536000 0.000000 0.000000 0.000000 0.000000 0.000000 0.000000 16.353093 -7.186033 27.193266 -3.131690 7.867731 -0.077767 4.762806 2.161117 -14.463916 0.000000 0.000000 0.000000 -5.273275 -5.776297 23.598552 4.208977 3.088846 -0.264495 -9.322538 -9.897524 9.751877 0.000000 0.000000 0.000000
-72.097346 79.051780 334.230293 0.601758 2.444208 -24.149729 0.090639 0.011625 24.133474 -0.010701 -0.078530 0.004729 -0.899423 -3.928951 0.396405 0.000000 0.000000 0.000000 5.138933 -3.514132 0.279347 7.375526 -1.090978 -3.161324 14.015384 1.208708 -2.925044 -14.187927 -2.793265 2.637542 0.000000 0.000000 0.000000 0.000000 0.000000 0.000000 -1.648194 -4.337832 -0.331641 -1.217826 -1.369488 0.525469 -8.474888 8.028066 2.766436 15.126344 -12.531012 -2.882066 0.000000 0.000000 0.000000 0.000000 0.000000 0.000000 15.553984 -7.802723 27.400277 -2.148979 8.284592 -0.531082 4.268341 3.237416 -14.040288 0.000000 0.000000 0.000000 -5.360412 -6.170115 23.492925 4.417422 3.418736 -0.249356 -7.164695 -6.177901 9.306503 0.000000 0.000000 0.000000
-71.880706 79.036075 334.337407 0.608577 2.527777 -23.949739 0.100327 0.014328 23.932798 -0.005781 -0.082952 0.005166 -0.638071 -3.797241 0.370427 0.000000 0.000000 0.000000 5.426090 -3.058884 0.072645 7.508527 -1.014460 -3.200693 11.707827 2.014389 -2.515348 -12.416841 -3.973348 2.497429 0.000000 0.000000 0.000000 0.000000 0.000000 0.000000 -1.823284 -4.200167 -0.326826 -1.289872 -1.554004 0.589193 -8.460055 11.335028 3.020568 12.121008 -17.103989 -1.880839 0.000000 0.000000 0.000000 0.000000 0.000000 0.000000 15.205408 -7.936240 27.201424 -1.861729 8.228739 -0.593709 5.476685 8.844468 -16.037090 0.000000 0.000000 0.000000 -5.472347 -6.404982 23.253732 4.472841 3.728440 -0.256914 -5.173514 -2.448427 9.127481 0.000000 0.000000 0.000000
-71.646597 79.011451 334.496937 0.623634 2.569661 -23.761612 0.127656 0.009258 23.745620 0.003593 -0.095860 0.007642 -0.547283 -3.630732 0.332487 0.000000 0.000000 0.000000 5.531783 -2.483158 -0.165157 7.678162 -1.078112 -3.153896 10.003803 2.428506 -2.137687 -11.604893 -3.069152 1.949093 0.000000 0.000000 0.000000 0.000000 0.000000 0.000000 -1.952284 -4.023856 -0.318634 -1.483396 -1.584826 0.692614 -7.789815 13.744776 2.957137 10.838415 -19.854375 -1.443650 0.000000 0.000000 0.000000 0.000000 0.000000 0.000000 14.854707 -7.986593 26.979988 -1.664370 8.130283 -0.622371 4.949191 10.086431 -15.614526 0.000000 0.000000 0.000000 -5.653462 -6.463296 23.045641 4.475109 3.744709 -0.281969 -3.731467 0.325915 9.030996 0.000000 0.000000 0.000000
-71.443126 78.972459 334.653816 0.587221 2.609396 -23.615249 0.141049 0.001846 23.599059 0.002986 -0.112279 0.006679 -0.449132 -3.523395 0.310317 0.000000 0.000000 0.000000 5.627619 -1.990146 -0.361592 7.873734 -1.137828 -3.110312 7.941045 2.147487 -1.446185 -10.559656 -2.090495 1.490774 0.000000 0.000000 0.000000 0.000000 0.000000 0.000000 -1.975055 -3.753385 -0.289355 -1.816230 -1.498607 0.856190 -6.013856 15.619804 2.409254 8.971155 -22.251805 -1.078136 0.000000 0.000000 0.000000 0.000000 0.000000 0.000000 14.639919 -7.759022 26.666087 -1.818460 7.687022 -0.447349 4.488415 10.690247 -15.046282 0.000000 0.000000 0.000000 -5.746643 -6.370529 22.904647 4.389591 3.536468 -0.317498 -3.059641 1.949072 9.197497 0.000000 0.000000 0.000000
